<?xml version="1.0" encoding="utf-8"?>
<!-- Generator: Adobe Illustrator 22.1.0, SVG Export Plug-In . SVG Version: 6.00 Build 0)  -->
<svg version="1.1" id="Layer_1" xmlns="http://www.w3.org/2000/svg" xmlns:xlink="http://www.w3.org/1999/xlink" x="0px" y="0px"
	 viewBox="0 0 122.4 91.4" style="enable-background:new 0 0 122.4 91.4;" xml:space="preserve">
<style type="text/css">
	.st0{fill:#FFFFFF;}
</style>
<g id="Group_47" transform="translate(-183.578 -284.24)">
	<g id="barcode-lines" transform="translate(183.578 284.24)">
		<g id="Group_39" transform="translate(0 0)">
			<path id="Path_65" class="st0" d="M9.2,0H1.3C0.6,0,0,0.6,0,1.3c0,0,0,0,0,0v88.7c0,0.7,0.6,1.3,1.3,1.3h7.8
				c0.7,0,1.3-0.6,1.3-1.3V1.3C10.5,0.6,9.9,0,9.2,0L9.2,0z"/>
			<path id="Path_66" class="st0" d="M83.1,0h-5.6c-0.7,0-1.3,0.6-1.3,1.3c0,0,0,0,0,0v88.7c0,0.7,0.6,1.3,1.3,1.3c0,0,0,0,0,0h5.6
				c0.7,0,1.3-0.6,1.3-1.3c0,0,0,0,0,0V1.3C84.5,0.6,83.9,0,83.1,0C83.1,0,83.1,0,83.1,0z"/>
			<path id="Path_67" class="st0" d="M22.8,0h-5.4c-0.7,0-1.3,0.6-1.3,1.3l0,0v88.7c0,0.7,0.6,1.3,1.3,1.3h5.4
				c0.7,0,1.3-0.6,1.3-1.3V1.3C24.1,0.6,23.5,0,22.8,0L22.8,0z"/>
			<path id="Path_68" class="st0" d="M121,0h-5.4c-0.7,0-1.3,0.6-1.3,1.3v88.7c0,0.7,0.6,1.3,1.3,1.3h5.4c0.7,0,1.3-0.6,1.3-1.3
				c0,0,0,0,0,0V1.3C122.4,0.6,121.8,0,121,0C121,0,121,0,121,0z"/>
			<path id="Path_69" class="st0" d="M108.7,0h-3.7c-0.7,0-1.3,0.6-1.3,1.3c0,0,0,0,0,0v88.7c0,0.7,0.6,1.3,1.3,1.3c0,0,0,0,0,0h3.7
				c0.7,0,1.3-0.6,1.3-1.3V1.3C110.1,0.6,109.5,0,108.7,0z"/>
			<path id="Path_70" class="st0" d="M69.5,0h-5.4c-0.7,0-1.3,0.6-1.3,1.3c0,0,0,0,0,0v88.7c0,0.7,0.6,1.3,1.3,1.3c0,0,0,0,0,0h5.4
				c0.7,0,1.3-0.6,1.3-1.3V1.3C70.8,0.6,70.2,0,69.5,0L69.5,0z"/>
			<path id="Path_71" class="st0" d="M56.5,0h-3.3c-0.7,0-1.3,0.6-1.3,1.3l0,0v88.7c0,0.7,0.6,1.3,1.3,1.3h3.3
				c0.7,0,1.3-0.6,1.3-1.3V1.3C57.8,0.6,57.2,0,56.5,0L56.5,0z"/>
			<path id="Path_72" class="st0" d="M98.5,0h-2.1c-0.7,0-1.3,0.6-1.3,1.3c0,0,0,0,0,0v88.7c0,0.7,0.6,1.3,1.3,1.3c0,0,0,0,0,0h2.1
				c0.7,0,1.3-0.6,1.3-1.3V1.3C99.8,0.6,99.2,0,98.5,0C98.5,0,98.5,0,98.5,0z"/>
			<path id="Path_73" class="st0" d="M45.1,0h-5.4c-0.7,0-1.3,0.6-1.3,1.3l0,0v88.7c0,0.7,0.6,1.3,1.3,1.3h5.4
				c0.7,0,1.3-0.6,1.3-1.3V1.3C46.4,0.6,45.8,0,45.1,0L45.1,0z"/>
			<path id="Path_74" class="st0" d="M31.7,0h-1.3C29.6,0,29,0.6,29,1.3l0,0v88.7c0,0.7,0.6,1.3,1.3,1.3h1.3c0.7,0,1.3-0.6,1.3-1.3
				V1.3C33,0.6,32.5,0,31.7,0L31.7,0z"/>
			<path id="Path_75" class="st0" d="M90.1,0h-0.5c-0.7,0-1.3,0.6-1.3,1.3v88.7c0,0.7,0.6,1.3,1.3,1.3h0.5c0.7,0,1.3-0.6,1.3-1.3
				V1.3C91.4,0.6,90.8,0,90.1,0z"/>
		</g>
	</g>
</g>
</svg>
