<svg xmlns="http://www.w3.org/2000/svg" viewBox="0 0 122.37 91.423">
  <defs>
    <style>
      .cls-1 {
        fill: #a2a2a2;
      }
    </style>
  </defs>
  <g id="Group_47" data-name="Group 47" transform="translate(-183.578 -284.24)">
    <g id="barcode-lines" transform="translate(183.578 284.24)">
      <g id="Group_39" data-name="Group 39" transform="translate(0 0)">
        <path id="Path_65" data-name="Path 65" class="cls-1" d="M9.156,11.549H1.34A1.34,1.34,0,0,0,0,12.889v88.744a1.34,1.34,0,0,0,1.34,1.34H9.156a1.34,1.34,0,0,0,1.34-1.34V12.889A1.34,1.34,0,0,0,9.156,11.549Z" transform="translate(0 -11.549)"/>
        <path id="Path_66" data-name="Path 66" class="cls-1" d="M63.8,11.549H58.215a1.339,1.339,0,0,0-1.34,1.34v88.744a1.339,1.339,0,0,0,1.34,1.34H63.8a1.339,1.339,0,0,0,1.34-1.34V12.889A1.339,1.339,0,0,0,63.8,11.549Z" transform="translate(19.327 -11.549)"/>
        <path id="Path_67" data-name="Path 67" class="cls-1" d="M18.7,11.549H13.34A1.34,1.34,0,0,0,12,12.889v88.744a1.34,1.34,0,0,0,1.34,1.34H18.7a1.34,1.34,0,0,0,1.34-1.34V12.889A1.34,1.34,0,0,0,18.7,11.549Z" transform="translate(4.078 -11.549)"/>
        <path id="Path_68" data-name="Path 68" class="cls-1" d="M92.033,11.549H86.674a1.34,1.34,0,0,0-1.34,1.34v88.744a1.34,1.34,0,0,0,1.34,1.34h5.359a1.339,1.339,0,0,0,1.34-1.34V12.889A1.339,1.339,0,0,0,92.033,11.549Z" transform="translate(28.997 -11.549)"/>
        <path id="Path_69" data-name="Path 69" class="cls-1" d="M82.432,11.549h-3.65a1.339,1.339,0,0,0-1.34,1.34v88.744a1.339,1.339,0,0,0,1.34,1.34h3.65a1.34,1.34,0,0,0,1.34-1.34V12.889A1.34,1.34,0,0,0,82.432,11.549Z" transform="translate(26.316 -11.549)"/>
        <path id="Path_70" data-name="Path 70" class="cls-1" d="M53.574,11.549H48.215a1.339,1.339,0,0,0-1.34,1.34v88.744a1.339,1.339,0,0,0,1.34,1.34h5.359a1.34,1.34,0,0,0,1.34-1.34V12.889A1.34,1.34,0,0,0,53.574,11.549Z" transform="translate(15.929 -11.549)"/>
        <path id="Path_71" data-name="Path 71" class="cls-1" d="M43.356,11.549h-3.35a1.34,1.34,0,0,0-1.34,1.34v88.744a1.34,1.34,0,0,0,1.34,1.34h3.35a1.34,1.34,0,0,0,1.34-1.34V12.889A1.34,1.34,0,0,0,43.356,11.549Z" transform="translate(13.139 -11.549)"/>
        <path id="Path_72" data-name="Path 72" class="cls-1" d="M74.387,11.549H72.32a1.339,1.339,0,0,0-1.34,1.34v88.744a1.339,1.339,0,0,0,1.34,1.34h2.067a1.34,1.34,0,0,0,1.34-1.34V12.889A1.339,1.339,0,0,0,74.387,11.549Z" transform="translate(24.12 -11.549)"/>
        <path id="Path_73" data-name="Path 73" class="cls-1" d="M35.366,11.549H30.007a1.34,1.34,0,0,0-1.34,1.34v88.744a1.34,1.34,0,0,0,1.34,1.34h5.359a1.34,1.34,0,0,0,1.34-1.34V12.889A1.34,1.34,0,0,0,35.366,11.549Z" transform="translate(9.741 -11.549)"/>
        <path id="Path_74" data-name="Path 74" class="cls-1" d="M24.347,11.549h-1.34a1.34,1.34,0,0,0-1.34,1.34v88.744a1.34,1.34,0,0,0,1.34,1.34h1.34a1.34,1.34,0,0,0,1.34-1.34V12.889A1.34,1.34,0,0,0,24.347,11.549Z" transform="translate(7.363 -11.549)"/>
        <path id="Path_75" data-name="Path 75" class="cls-1" d="M67.69,11.549H67.2a1.341,1.341,0,0,0-1.34,1.34v88.744a1.341,1.341,0,0,0,1.34,1.34h.486a1.341,1.341,0,0,0,1.34-1.34V12.889A1.342,1.342,0,0,0,67.69,11.549Z" transform="translate(22.381 -11.549)"/>
      </g>
    </g>
  </g>
</svg>
